<svg id="visual" viewBox="0 0 960 540" width="960" height="540" xmlns="http://www.w3.org/2000/svg" xmlns:xlink="http://www.w3.org/1999/xlink" version="1.1"><path d="M0 421L11.5 424.5C23 428 46 435 68.8 435.5C91.7 436 114.3 430 137.2 425.3C160 420.7 183 417.3 205.8 421.2C228.7 425 251.3 436 274.2 442C297 448 320 449 342.8 449.3C365.7 449.7 388.3 449.3 411.2 443.5C434 437.7 457 426.3 480 422.3C503 418.3 526 421.7 548.8 425.7C571.7 429.7 594.3 434.3 617.2 432.8C640 431.3 663 423.7 685.8 422.2C708.7 420.7 731.3 425.3 754.2 423.8C777 422.3 800 414.7 822.8 412.3C845.7 410 868.3 413 891.2 413.8C914 414.7 937 413.3 948.5 412.7L960 412L960 541L948.5 541C937 541 914 541 891.2 541C868.3 541 845.7 541 822.8 541C800 541 777 541 754.2 541C731.3 541 708.7 541 685.8 541C663 541 640 541 617.2 541C594.3 541 571.7 541 548.8 541C526 541 503 541 480 541C457 541 434 541 411.2 541C388.3 541 365.7 541 342.8 541C320 541 297 541 274.2 541C251.3 541 228.7 541 205.8 541C183 541 160 541 137.2 541C114.3 541 91.7 541 68.8 541C46 541 23 541 11.5 541L0 541Z" fill="#010508"></path><path d="M0 455L11.5 455.2C23 455.3 46 455.7 68.8 460.7C91.7 465.7 114.3 475.3 137.2 474.2C160 473 183 461 205.8 454.7C228.7 448.3 251.3 447.7 274.2 447C297 446.3 320 445.7 342.8 445.7C365.7 445.7 388.3 446.3 411.2 450.7C434 455 457 463 480 466C503 469 526 467 548.8 467.5C571.7 468 594.3 471 617.2 473.5C640 476 663 478 685.8 479.3C708.7 480.7 731.3 481.3 754.2 482.2C777 483 800 484 822.8 482.8C845.7 481.7 868.3 478.3 891.2 471C914 463.7 937 452.3 948.5 446.7L960 441L960 541L948.5 541C937 541 914 541 891.2 541C868.3 541 845.7 541 822.8 541C800 541 777 541 754.2 541C731.3 541 708.7 541 685.8 541C663 541 640 541 617.2 541C594.3 541 571.7 541 548.8 541C526 541 503 541 480 541C457 541 434 541 411.2 541C388.3 541 365.7 541 342.8 541C320 541 297 541 274.2 541C251.3 541 228.7 541 205.8 541C183 541 160 541 137.2 541C114.3 541 91.7 541 68.8 541C46 541 23 541 11.5 541L0 541Z" fill="#70757a"></path><path d="M0 518L11.5 512.2C23 506.3 46 494.7 68.8 493.7C91.7 492.7 114.3 502.3 137.2 504C160 505.7 183 499.3 205.8 494.8C228.7 490.3 251.3 487.7 274.2 488C297 488.3 320 491.7 342.8 491.3C365.7 491 388.3 487 411.2 485.7C434 484.3 457 485.7 480 491.5C503 497.3 526 507.7 548.8 509.2C571.7 510.7 594.3 503.3 617.2 497.2C640 491 663 486 685.8 484.8C708.7 483.7 731.3 486.3 754.2 490.2C777 494 800 499 822.8 503.5C845.7 508 868.3 512 891.2 508C914 504 937 492 948.5 486L960 480L960 541L948.5 541C937 541 914 541 891.2 541C868.3 541 845.7 541 822.8 541C800 541 777 541 754.2 541C731.3 541 708.7 541 685.8 541C663 541 640 541 617.2 541C594.3 541 571.7 541 548.8 541C526 541 503 541 480 541C457 541 434 541 411.2 541C388.3 541 365.7 541 342.8 541C320 541 297 541 274.2 541C251.3 541 228.7 541 205.8 541C183 541 160 541 137.2 541C114.3 541 91.7 541 68.8 541C46 541 23 541 11.5 541L0 541Z" fill="#eef7ff"></path></svg>