<svg id="visual" viewBox="0 0 960 540" width="960" height="540" xmlns="http://www.w3.org/2000/svg" xmlns:xlink="http://www.w3.org/1999/xlink" version="1.1"><path d="M0 117L11.5 113.5C23 110 46 103 68.8 102.5C91.7 102 114.3 108 137.2 112.7C160 117.3 183 120.7 205.8 116.8C228.7 113 251.3 102 274.2 96C297 90 320 89 342.8 88.7C365.7 88.3 388.3 88.7 411.2 94.5C434 100.3 457 111.7 480 115.7C503 119.7 526 116.3 548.8 112.3C571.7 108.3 594.3 103.7 617.2 105.2C640 106.7 663 114.3 685.8 115.8C708.7 117.3 731.3 112.7 754.2 114.2C777 115.7 800 123.3 822.8 125.7C845.7 128 868.3 125 891.2 124.2C914 123.3 937 124.7 948.5 125.3L960 126L960 0L948.5 0C937 0 914 0 891.2 0C868.3 0 845.7 0 822.8 0C800 0 777 0 754.2 0C731.3 0 708.7 0 685.8 0C663 0 640 0 617.2 0C594.3 0 571.7 0 548.8 0C526 0 503 0 480 0C457 0 434 0 411.2 0C388.3 0 365.7 0 342.8 0C320 0 297 0 274.2 0C251.3 0 228.7 0 205.8 0C183 0 160 0 137.2 0C114.3 0 91.7 0 68.8 0C46 0 23 0 11.5 0L0 0Z" fill="#010508"></path><path d="M0 83L11.5 82.8C23 82.7 46 82.3 68.8 77.3C91.7 72.3 114.3 62.7 137.2 63.8C160 65 183 77 205.8 83.3C228.7 89.7 251.3 90.3 274.2 91C297 91.7 320 92.3 342.8 92.3C365.7 92.3 388.3 91.7 411.2 87.3C434 83 457 75 480 72C503 69 526 71 548.8 70.5C571.7 70 594.3 67 617.2 64.5C640 62 663 60 685.8 58.7C708.7 57.3 731.3 56.7 754.2 55.8C777 55 800 54 822.8 55.2C845.7 56.3 868.3 59.7 891.2 67C914 74.3 937 85.7 948.5 91.3L960 97L960 0L948.5 0C937 0 914 0 891.2 0C868.3 0 845.7 0 822.8 0C800 0 777 0 754.2 0C731.3 0 708.7 0 685.8 0C663 0 640 0 617.2 0C594.3 0 571.7 0 548.8 0C526 0 503 0 480 0C457 0 434 0 411.2 0C388.3 0 365.7 0 342.8 0C320 0 297 0 274.2 0C251.3 0 228.7 0 205.8 0C183 0 160 0 137.2 0C114.3 0 91.7 0 68.8 0C46 0 23 0 11.5 0L0 0Z" fill="#70757a"></path><path d="M0 20L11.5 25.8C23 31.7 46 43.3 68.8 44.3C91.7 45.3 114.3 35.7 137.2 34C160 32.3 183 38.7 205.8 43.2C228.7 47.7 251.3 50.3 274.2 50C297 49.7 320 46.3 342.8 46.7C365.7 47 388.3 51 411.2 52.3C434 53.7 457 52.3 480 46.5C503 40.7 526 30.3 548.8 28.8C571.7 27.3 594.3 34.7 617.2 40.8C640 47 663 52 685.8 53.2C708.7 54.3 731.3 51.7 754.2 47.8C777 44 800 39 822.8 34.5C845.7 30 868.3 26 891.2 30C914 34 937 46 948.5 52L960 58L960 0L948.5 0C937 0 914 0 891.2 0C868.3 0 845.7 0 822.8 0C800 0 777 0 754.2 0C731.3 0 708.7 0 685.8 0C663 0 640 0 617.2 0C594.3 0 571.7 0 548.8 0C526 0 503 0 480 0C457 0 434 0 411.2 0C388.3 0 365.7 0 342.8 0C320 0 297 0 274.2 0C251.3 0 228.7 0 205.8 0C183 0 160 0 137.2 0C114.3 0 91.7 0 68.8 0C46 0 23 0 11.5 0L0 0Z" fill="#eef7ff"></path></svg>